<svg id="logo_copie_Image" data-name="logo copie Image" xmlns="http://www.w3.org/2000/svg" viewBox="0 0 219.36 236.42"><defs><style>.cls-1{fill:#35c1de;}.cls-2{fill:#39bfdb;}.cls-3{fill:#111110;}.cls-4{fill:#9053f6;}.cls-5{fill:#36c0dd;}</style></defs><path class="cls-1" d="M0,33.57l7.72-3.36a8,8,0,0,1,.33.74C9.53,35.7,11,40.46,12.49,45.21c1.87,5.91,3.78,11.81,5.69,17.72,2.11,6.54,4.19,13.1,6.35,19.63q4.38,13.17,8.86,26.31,3.18,9.38,6.44,18.73c2.67,7.74,5.32,15.48,8.06,23.19,3.46,9.76,7,19.49,10.53,29.23q3,8.19,6,16.35,4,10.6,8,21.18,2.28,6,4.61,11.94a1.26,1.26,0,0,0,.83.65c1.81.21,3.62.45,5.44.48,3.69.08,7.39.09,11.08,0,4.13-.09,8.27-.26,12.4-.48,3.13-.16,6.25-.37,9.36-.73q5.82-.69,11.61-1.66c5.33-.88,10.63-1.88,15.95-2.83-.41,1.22-.77,2.46-1.27,3.65a1.85,1.85,0,0,1-1.06,1c-5,1-10,2-15,2.94-4.4.8-8.83,1.5-13.26,2.14-2.5.36-5,.49-7.54.76a159.34,159.34,0,0,1-18.54,1c-3.68,0-7.38,0-11.06,0-1.73,0-3.46-.35-5.19-.44-.69,0-.81-.39-1-.9-2.65-7-5.34-13.91-8-20.88-2.92-7.69-5.84-15.39-8.69-23.11q-5-13.52-9.83-27.09c-2.81-7.86-5.55-15.75-8.28-23.64q-4.45-12.84-8.85-25.69-4.49-13.14-8.87-26.32c-2.14-6.47-4.2-13-6.29-19.47q-2.89-9-5.77-18-2.52-7.95-5-15.91A1.56,1.56,0,0,0,0,34.53Z" transform="translate(0)"/><path class="cls-2" d="M150.47,2.15C150.76.49,152.22,1,153.19.81A30.77,30.77,0,0,1,157.8.53c4.65-.11,9.29-.17,13.94-.27A4.56,4.56,0,0,0,172.8,0h7.92a5.36,5.36,0,0,0,1.1.27c3.7.09,7.4.13,11.1.27,2.14.08,4.28.21,6.4.5,4,.57,8.06,1.12,12,2,2.72.58,5.34,1.65,8,2.5v.72c-.56,1.9-1.15,3.8-1.67,5.7q-3.06,11.17-6.1,22.36c-1.34,5-2.63,10-4,15-1.93,7.06-3.91,14.11-5.85,21.17-1.43,5.2-2.8,10.41-4.23,15.61q-2.46,9-5,17.89-2.66,9.56-5.35,19.11-2.61,9.27-5.25,18.53c-1.94,6.85-3.86,13.71-5.84,20.55-1.22,4.25-2.53,8.47-3.79,12.71-1.61,5.44-3.2,10.88-4.82,16.32-.95,3.17-1.93,6.32-2.93,9.48-1.55,4.93-3.18,9.84-4.67,14.8a3.9,3.9,0,0,1-2.26,2.76,10.66,10.66,0,0,1,.25-1.15c8.31-25.64,15.87-51.51,23-77.48C192.64,97.28,204.12,55,215.69,12.67c.55-2,1.07-4.06,1.6-6.09-.31-.14-.49-.25-.67-.31-.75-.27-1.5-.54-2.26-.78a92.82,92.82,0,0,0-19.91-3.41,255.48,255.48,0,0,0-27.81-.53C161.25,1.69,155.86,2,150.47,2.15Z" transform="translate(0)"/><path class="cls-3" d="M150.47,2.15c5.39-.2,10.78-.46,16.17-.6a255.48,255.48,0,0,1,27.81.53,92.82,92.82,0,0,1,19.91,3.41c.76.24,1.51.51,2.26.78.18.06.36.17.67.31-.53,2-1,4.06-1.6,6.09C204.12,55,192.64,97.28,181,139.54c-7.18,26-14.74,51.84-23,77.48a10.66,10.66,0,0,0-.25,1.15h0l-.36.25h0l-6.6,1.38c-4.83.87-9.64,1.94-14.5,2.55-8.56,1.07-17.14,2-25.73,2.73a156.38,156.38,0,0,1-23.61-.15,1.66,1.66,0,0,1-1.71-1.25C61.81,163.47,40.7,102.48,21.14,41c-1.77-5.58-3.56-11.16-5.33-16.74l-.21-.36h0c-.22-.84.13-1.31.91-1.63,1.22-.5,2.38-1.13,3.6-1.63,9.36-3.81,19.17-6,29.06-7.85,8.76-1.61,17.57-2.91,26.36-4.3,2.83-.45,5.68-.75,8.59-1.12.15.46.27.83.38,1.2Q98.3,54.39,112.1,100.24c1.46,4.84,3.16,9.61,4.74,14.41l3.75,11.46c.2-.57.31-.82.38-1.08q1.56-5.84,3.1-11.66,11.34-43.12,21.06-86.65C146.59,20.15,148,13.55,149.38,7l.89-4.57v0l.21-.27Z" transform="translate(0)"/><path class="cls-4" d="M15.81,24.21c1.77,5.58,3.56,11.16,5.33,16.74,19.56,61.53,40.67,122.52,64,182.72a1.66,1.66,0,0,0,1.71,1.25,156.38,156.38,0,0,0,23.61.15c8.59-.68,17.17-1.66,25.73-2.73,4.86-.61,9.67-1.68,14.5-2.55,0,.06,0,.13,0,.18-.34.95-.72,1.89-1,2.85a1.54,1.54,0,0,1-1.41,1.12c-1.53.3-3.05.65-4.57,1-5.32.95-10.62,1.95-15.95,2.83q-5.79,1-11.61,1.66c-3.11.36-6.23.57-9.36.73-4.13.22-8.27.39-12.4.48-3.69.08-7.39.07-11.08,0-1.82,0-3.63-.27-5.44-.48a1.26,1.26,0,0,1-.83-.65q-2.34-6-4.61-11.94-4-10.59-8-21.18-3.06-8.16-6-16.35c-3.53-9.74-7.07-19.47-10.53-29.23-2.74-7.71-5.39-15.45-8.06-23.19q-3.24-9.36-6.44-18.73-4.45-13.16-8.86-26.31C22.37,76,20.29,69.47,18.18,62.93,16.27,57,14.36,51.12,12.49,45.21,11,40.46,9.53,35.7,8.05,31a8,8,0,0,0-.33-.74c-.47-2.29-.49-2.34,1.76-3.38,2-.93,4.09-1.74,6.14-2.6Z" transform="translate(0)"/><path class="cls-5" d="M116.84,114.65c-1.58-4.8-3.28-9.57-4.74-14.41Q98.27,54.4,84.51,8.53c-.11-.37-.23-.74-.38-1.2-2.91.37-5.76.67-8.59,1.12-8.79,1.39-17.6,2.69-26.36,4.3-9.89,1.82-19.7,4-29.06,7.85-1.22.5-2.38,1.13-3.6,1.63-.78.32-1.13.79-.91,1.63A12.49,12.49,0,0,1,15,22.21a1.2,1.2,0,0,1,.82-1.51c4.85-1.76,9.6-3.86,14.56-5.21,7.07-1.93,14.26-3.41,21.44-4.88,4.63-.94,9.33-1.51,14-2.23,3.63-.57,7.25-1.14,10.88-1.67,2.54-.37,5.09-.68,7.64-1a1,1,0,0,1,.85.53c2,6.53,3.84,13.08,5.76,19.62q2.31,7.83,4.64,15.64,4.17,13.94,8.4,27.86c1.41,4.6,2.95,9.17,4.39,13.77,1.91,6.09,3.77,12.2,5.65,18.3a3.88,3.88,0,0,0,.29.45c7.5-29.5,14.31-59,20.67-88.94h5.87a4.17,4.17,0,0,1,0,.71q-2.11,9.59-4.26,19.16-3.09,13.68-6.24,27.33c-1.27,5.54-2.55,11.07-3.91,16.59-1.83,7.43-3.73,14.85-5.61,22.27C119.51,104.25,118.17,109.45,116.84,114.65Z" transform="translate(0)"/><path class="cls-4" d="M116.84,114.65c1.33-5.2,2.67-10.4,4-15.6,1.88-7.42,3.78-14.84,5.61-22.27,1.36-5.52,2.64-11,3.91-16.59q3.15-13.65,6.24-27.33,2.16-9.57,4.26-19.16a4.17,4.17,0,0,0,0-.71c.44-1.81.88-3.62,1.33-5.5l6.91-.57.26,0c-1.41,6.58-2.79,13.18-4.25,19.75q-9.72,43.52-21.06,86.65-1.53,5.84-3.1,11.66c-.07.26-.18.51-.38,1.08Z" transform="translate(0)"/></svg>