
<svg width="48" height="48" viewBox="0 0 48 48" fill="none" xmlns="http://www.w3.org/2000/svg">
<path fill-rule="evenodd" clip-rule="evenodd" d="M2.42822 11.5837C2.15123 12.3369 2 13.1508 2 14V34C2 37.866 5.13401 41 9 41H39C42.866 41 46 37.866 46 34V14C46 12.9959 45.7886 12.0411 45.4078 11.1779L44.6102 11.7922L44.5987 11.8011L44.587 11.8096L28.0477 23.8006C25.6313 25.5525 22.3698 25.5795 19.9247 23.8679L3.42654 12.3192L3.41651 12.3122L3.40665 12.3049L2.42822 11.5837ZM3.39223 9.80968L4.58349 10.6878L21.0716 22.2295C22.8181 23.452 25.1477 23.4327 26.8738 22.1814L43.4013 10.1989L44.3411 9.47505C43.057 7.96096 41.1407 7 39 7H9C6.70551 7 4.66887 8.10395 3.39223 9.80968Z" fill="black"/>
</svg>
