
<svg width="48" height="48" viewBox="0 0 48 48" fill="none" xmlns="http://www.w3.org/2000/svg">
<path fill-rule="evenodd" clip-rule="evenodd" d="M11 5C11 3.34315 12.3431 2 14 2H34C35.6569 2 37 3.34315 37 5V43C37 44.6569 35.6569 46 34 46H14C12.3431 46 11 44.6569 11 43V5ZM14 4C13.4477 4 13 4.44772 13 5V43C13 43.5523 13.4477 44 14 44H34C34.5523 44 35 43.5523 35 43V5C35 4.44772 34.5523 4 34 4H14Z" fill="black"/>
<path fill-rule="evenodd" clip-rule="evenodd" d="M23 7C23 6.44772 23.4477 6 24 6H28C28.5523 6 29 6.44772 29 7C29 7.55228 28.5523 8 28 8H24C23.4477 8 23 7.55228 23 7Z" fill="black"/>
<path d="M21 7C21 7.55228 20.5523 8 20 8C19.4477 8 19 7.55228 19 7C19 6.44772 19.4477 6 20 6C20.5523 6 21 6.44772 21 7Z" fill="black"/>
<path d="M22 39C22 37.8954 22.8954 37 24 37C25.1046 37 26 37.8954 26 39C26 40.1046 25.1046 41 24 41C22.8954 41 22 40.1046 22 39Z" fill="black"/>
</svg>
